<svg width="24" height="24" viewBox="0 0 24 24" fill="none" xmlns="http://www.w3.org/2000/svg">
<path d="M6.02317 18.8609C6.20351 18.6621 7.43821 15.4805 6.79543 13.1776C6.15265 10.8747 5.92605 10.5926 4.79309 9.88511C4.57113 9.74638 4.33991 9.6169 4.10869 9.50129L2 8.4377L2.50868 7.13364L5.79657 7.41572C5.79657 7.41572 6.64745 7.36023 6.59196 6.50935L6.56421 5.22379C6.55959 5.00182 6.78155 4.85384 6.98503 4.93708L8.03937 5.38564C8.66828 5.65385 9.3943 5.50125 9.85673 5.00182L12.0117 2.25497C12.3076 1.94052 12.7932 1.91277 13.1215 2.19486L14.999 4.24806C15.3921 4.58563 15.8452 4.8446 16.3354 5.01107L20.8626 6.56947L20.5297 8.89551C20.4511 9.45043 20.2245 9.97297 19.8777 10.4123L18.8788 11.6701C18.8788 11.6701 18.6707 11.9753 18.8788 12.1418C19.2256 12.4146 19.4476 12.8216 19.6464 13.2146L20.1782 14.2782L19.8777 14.9256C19.7482 15.2031 19.7898 15.5268 19.984 15.7626L21.0846 17.1129L18.9297 19.6609L16.3493 18.9765C15.6048 18.7777 14.8233 19.1245 14.4718 19.8089L13.6626 21.3627L6.01392 18.8702L6.02317 18.8609Z" stroke="black" stroke-linecap="round" stroke-linejoin="round"/>
<path d="M13.3156 16.5255C14.3371 16.5255 15.1653 15.6974 15.1653 14.6758C15.1653 13.6542 14.3371 12.826 13.3156 12.826C12.294 12.826 11.4658 13.6542 11.4658 14.6758C11.4658 15.6974 12.294 16.5255 13.3156 16.5255Z" fill="#10151C"/>
</svg>
