<svg width="24" height="24" viewBox="0 0 24 24" fill="none" xmlns="http://www.w3.org/2000/svg">
<path d="M19.6107 11.8396C20.9307 11.8396 22.0008 10.7917 22.0008 9.49901C22.0008 8.20635 20.9307 7.15845 19.6107 7.15845C18.2908 7.15845 17.2207 8.20635 17.2207 9.49901C17.2207 10.7917 18.2908 11.8396 19.6107 11.8396Z" stroke="black" stroke-miterlimit="10"/>
<path d="M11.2689 14.5577C12.5889 14.5577 13.659 13.5098 13.659 12.2171C13.659 10.9245 12.5889 9.87659 11.2689 9.87659C9.94896 9.87659 8.87891 10.9245 8.87891 12.2171C8.87891 13.5098 9.94896 14.5577 11.2689 14.5577Z" stroke="black" stroke-miterlimit="10"/>
<path d="M5.27479 23.4651C6.59477 23.4651 7.66482 22.4172 7.66482 21.1245C7.66482 19.8318 6.59477 18.7839 5.27479 18.7839C3.95482 18.7839 2.88477 19.8318 2.88477 21.1245C2.88477 22.4172 3.95482 23.4651 5.27479 23.4651Z" stroke="black" stroke-miterlimit="10"/>
<path d="M12.0685 3.75895C12.9396 3.75895 13.6458 3.06739 13.6458 2.21431C13.6458 1.36123 12.9396 0.669678 12.0685 0.669678C11.1974 0.669678 10.4912 1.36123 10.4912 2.21431C10.4912 3.06739 11.1974 3.75895 12.0685 3.75895Z" stroke="black" stroke-miterlimit="10"/>
<path d="M15.7833 20.7411C16.6544 20.7411 17.3606 20.0496 17.3606 19.1965C17.3606 18.3434 16.6544 17.6519 15.7833 17.6519C14.9122 17.6519 14.2061 18.3434 14.2061 19.1965C14.2061 20.0496 14.9122 20.7411 15.7833 20.7411Z" stroke="black" stroke-miterlimit="10"/>
<path d="M12.0681 3.75879L11.7168 9.67427" stroke="black" stroke-miterlimit="10"/>
<path d="M9.67768 14.2554L6.28125 18.784" stroke="black" stroke-miterlimit="10"/>
<path d="M13.6455 11.5626L17.3235 10.1934" stroke="black" stroke-miterlimit="10"/>
<path d="M12.5078 14.2554L14.7721 17.6518" stroke="black" stroke-miterlimit="10"/>
</svg>
