<svg width="24" height="24" viewBox="0 0 24 24" fill="none" xmlns="http://www.w3.org/2000/svg">
<g clip-path="url(#clip0_2032_477)">
<path d="M5.49154 3.74305L6.39007 5.09889C7.15424 6.25135 6.74276 7.81905 5.50833 8.43765C4.87012 8.75966 4.11435 8.75966 3.46775 8.43765C2.24171 7.81905 1.83024 6.25135 2.58601 5.09889L4.49224 2.2262L5.49154 3.74305Z" stroke="black" stroke-miterlimit="10"/>
<path d="M12.9984 3.74317L13.8969 5.09901C14.6611 6.25148 14.2496 7.81917 13.0152 8.43777C12.377 8.75979 11.6212 8.75979 10.9746 8.43777C9.74855 7.81917 9.33707 6.25148 10.0928 5.09901L11.9907 2.22632L12.99 3.74317" stroke="black" stroke-miterlimit="10"/>
<path d="M20.515 3.74317L21.4135 5.09901C22.1777 6.25148 21.7662 7.81917 20.5318 8.43777C19.8936 8.75979 19.1378 8.75979 18.4912 8.43777C17.2652 7.81917 16.8537 6.25148 17.6094 5.09901L19.5073 2.22632L20.5066 3.74317" stroke="black" stroke-miterlimit="10"/>
<path d="M0 12.1322H24" stroke="black" stroke-miterlimit="10"/>
<path d="M0 15.2335C1.9986 15.2335 1.9986 16.9114 3.9972 16.9114C5.9958 16.9114 5.9958 15.2335 7.9944 15.2335C9.993 15.2335 9.993 16.9114 11.9916 16.9114C13.9902 16.9114 13.9902 15.2335 15.9888 15.2335C17.9874 15.2335 17.9874 16.9114 19.9944 16.9114C22.0014 16.9114 21.993 15.2335 24 15.2335" stroke="black" stroke-miterlimit="10"/>
<path d="M3 21.9999C3.55228 21.9999 4 21.5522 4 20.9999C4 20.4476 3.55228 19.9999 3 19.9999C2.44772 19.9999 2 20.4476 2 20.9999C2 21.5522 2.44772 21.9999 3 21.9999Z" fill="#10151C"/>
<path d="M8 19.9999C8.55228 19.9999 9 19.5522 9 18.9999C9 18.4476 8.55228 17.9999 8 17.9999C7.44772 17.9999 7 18.4476 7 18.9999C7 19.5522 7.44772 19.9999 8 19.9999Z" fill="#10151C"/>
<path d="M16 19.9999C16.5523 19.9999 17 19.5522 17 18.9999C17 18.4476 16.5523 17.9999 16 17.9999C15.4477 17.9999 15 18.4476 15 18.9999C15 19.5522 15.4477 19.9999 16 19.9999Z" fill="#10151C"/>
<path d="M12 21.9999C12.5523 21.9999 13 21.5522 13 20.9999C13 20.4476 12.5523 19.9999 12 19.9999C11.4477 19.9999 11 20.4476 11 20.9999C11 21.5522 11.4477 21.9999 12 21.9999Z" fill="#10151C"/>
<path d="M21 21.9999C21.5523 21.9999 22 21.5522 22 20.9999C22 20.4476 21.5523 19.9999 21 19.9999C20.4477 19.9999 20 20.4476 20 20.9999C20 21.5522 20.4477 21.9999 21 21.9999Z" fill="#10151C"/>
</g>
<defs>
<clipPath id="clip0_2032_477">
<rect width="24" height="24" fill="white"/>
</clipPath>
</defs>
</svg>
