<svg width="22" height="22" viewBox="0 0 22 22" fill="none" xmlns="http://www.w3.org/2000/svg">
<path d="M11 21C16.5228 21 21 16.5228 21 11C21 5.47715 16.5228 1 11 1C5.47715 1 1 5.47715 1 11C1 16.5228 5.47715 21 11 21Z" stroke="black" stroke-miterlimit="10"/>
<path d="M10.9995 10.9507C12.6804 10.9507 14.043 9.58811 14.043 7.90725C14.043 6.22638 12.6804 4.86377 10.9995 4.86377C9.31867 4.86377 7.95605 6.22638 7.95605 7.90725C7.95605 9.58811 9.31867 10.9507 10.9995 10.9507Z" stroke="black" stroke-miterlimit="10"/>
<path d="M19.3344 16.6276C17.4476 14.9377 14.4206 13.8467 10.9997 13.8467C8.00548 13.8467 5.31475 14.6834 3.42796 16.0206C3.15725 16.2093 2.90294 16.4144 2.66504 16.6276" stroke="black" stroke-miterlimit="10"/>
</svg>
